<svg width="32" height="33" viewBox="0 0 32 33" fill="none" xmlns="http://www.w3.org/2000/svg">
<path fill-rule="evenodd" clip-rule="evenodd" d="M13.4808 9.55385H12.0298C11.4778 9.55385 11.0298 10.0019 11.0298 10.5539C11.0298 11.1059 11.4778 11.5539 12.0298 11.5539H12.5268C11.0098 13.0209 9.14478 14.7639 7.67579 16.7169C6.13379 18.7679 5.02979 21.0469 5.02979 23.4699C5.02979 25.5159 5.51478 27.0519 6.32779 28.2099C8.15579 30.8109 11.7898 31.5359 16.0298 31.5359C20.2698 31.5359 23.9038 30.8109 25.7308 28.2099C26.5438 27.0519 27.0298 25.5159 27.0298 23.4699C27.0298 21.0459 25.9238 18.7649 24.3808 16.7129C22.9138 14.7609 21.0498 13.0199 19.5338 11.5539H20.0298C20.5818 11.5539 21.0298 11.1059 21.0298 10.5539C21.0298 10.0019 20.5818 9.55385 20.0298 9.55385H18.5718L20.4328 5.91285C20.9078 4.98285 20.8648 3.87285 20.3198 2.98185C19.7748 2.09085 18.8058 1.54785 17.7608 1.54785H14.2898C13.2458 1.54785 12.2768 2.09085 11.7308 2.98185C11.1858 3.87285 11.1438 4.98385 11.6188 5.91385L13.4808 9.55385ZM15.0028 15.5479H14.9998C13.3438 15.5479 11.9998 16.8919 11.9998 18.5479C11.9998 20.2039 13.3438 21.5479 14.9998 21.5479H16.9998C17.5518 21.5479 17.9998 21.9959 17.9998 22.5479C17.9998 23.0999 17.5518 23.5479 16.9998 23.5479H13.9998C13.4478 23.5479 12.9998 23.9959 12.9998 24.5479C12.9998 25.0999 13.4478 25.5479 13.9998 25.5479H15.0028V26.5479C15.0028 27.0999 15.4518 27.5479 16.0028 27.5479C16.5548 27.5479 17.0028 27.0999 17.0028 26.5479V25.5479C18.6578 25.5459 19.9998 24.2029 19.9998 22.5479C19.9998 20.8919 18.6558 19.5479 16.9998 19.5479H14.9998C14.4478 19.5479 13.9998 19.0999 13.9998 18.5479C13.9998 17.9959 14.4478 17.5479 14.9998 17.5479H17.9998C18.5518 17.5479 18.9998 17.0999 18.9998 16.5479C18.9998 15.9959 18.5518 15.5479 17.9998 15.5479H17.0028V14.5479C17.0028 13.9959 16.5548 13.5479 16.0028 13.5479C15.4518 13.5479 15.0028 13.9959 15.0028 14.5479V15.5479Z" fill="url(#paint0_linear_482_46)"/>
<defs>
<linearGradient id="paint0_linear_482_46" x1="16.0273" y1="1.38747" x2="16.0273" y2="31.6506" gradientUnits="userSpaceOnUse">
<stop stop-color="#FFF650"/>
<stop offset="1" stop-color="#FFAB17"/>
</linearGradient>
</defs>
</svg>
