<svg width="32" height="33" viewBox="0 0 32 33" fill="none" xmlns="http://www.w3.org/2000/svg">
<g clip-path="url(#clip0_447_478)">
<path d="M9.33317 1.88135H11.9998C12.7071 1.88135 13.3854 2.1623 13.8855 2.6624C14.3856 3.16249 14.6665 3.84077 14.6665 4.54801V31.2147H6.6665V4.54801C6.6665 3.84077 6.94746 3.16249 7.44755 2.6624C7.94765 2.1623 8.62593 1.88135 9.33317 1.88135Z" fill="url(#paint0_linear_447_478)"/>
<path d="M9.33317 1.88135H11.9998C12.7071 1.88135 13.3854 2.1623 13.8855 2.6624C14.3856 3.16249 14.6665 3.84077 14.6665 4.54801V31.2147H6.6665V4.54801C6.6665 3.84077 6.94746 3.16249 7.44755 2.6624C7.94765 2.1623 8.62593 1.88135 9.33317 1.88135Z" fill="url(#paint1_linear_447_478)"/>
<path d="M22.6667 12.5479H25.3333C26.0406 12.5479 26.7189 12.8288 27.219 13.3289C27.719 13.829 28 14.5073 28 15.2145V31.2145H20V15.2145C20 14.5073 20.281 13.829 20.781 13.3289C21.2811 12.8288 21.9594 12.5479 22.6667 12.5479Z" fill="url(#paint2_linear_447_478)"/>
<path d="M22.6667 12.5479H25.3333C26.0406 12.5479 26.7189 12.8288 27.219 13.3289C27.719 13.829 28 14.5073 28 15.2145V31.2145H20V15.2145C20 14.5073 20.281 13.829 20.781 13.3289C21.2811 12.8288 21.9594 12.5479 22.6667 12.5479Z" fill="url(#paint3_linear_447_478)"/>
<path d="M30.6667 32.5479H5.33333C3.91885 32.5479 2.56229 31.9859 1.5621 30.9858C0.561903 29.9856 0 28.629 0 27.2145V1.88118C0 1.52756 0.140476 1.18842 0.390524 0.938376C0.640573 0.688327 0.979711 0.547852 1.33333 0.547852C1.68696 0.547852 2.02609 0.688327 2.27614 0.938376C2.52619 1.18842 2.66667 1.52756 2.66667 1.88118V27.2145C2.66667 27.9218 2.94762 28.6 3.44772 29.1001C3.94781 29.6002 4.62609 29.8812 5.33333 29.8812H30.6667C31.0203 29.8812 31.3594 30.0217 31.6095 30.2717C31.8595 30.5218 32 30.8609 32 31.2145C32 31.5681 31.8595 31.9073 31.6095 32.1573C31.3594 32.4074 31.0203 32.5479 30.6667 32.5479Z" fill="url(#paint4_linear_447_478)"/>
</g>
<defs>
<linearGradient id="paint0_linear_447_478" x1="10.6665" y1="2.03735" x2="10.6665" y2="31.1107" gradientUnits="userSpaceOnUse">
<stop stop-color="#E864FF"/>
<stop offset="1" stop-color="#BA20ED"/>
</linearGradient>
<linearGradient id="paint1_linear_447_478" x1="10.6665" y1="2.25068" x2="10.6665" y2="31.192" gradientUnits="userSpaceOnUse">
<stop stop-color="#FFF650"/>
<stop offset="1" stop-color="#FFAB17"/>
</linearGradient>
<linearGradient id="paint2_linear_447_478" x1="24" y1="2.03718" x2="24" y2="31.1105" gradientUnits="userSpaceOnUse">
<stop stop-color="#E864FF"/>
<stop offset="1" stop-color="#BA20ED"/>
</linearGradient>
<linearGradient id="paint3_linear_447_478" x1="24" y1="12.7829" x2="24" y2="31.2001" gradientUnits="userSpaceOnUse">
<stop stop-color="#FFF650"/>
<stop offset="1" stop-color="#FFAB17"/>
</linearGradient>
<linearGradient id="paint4_linear_447_478" x1="16" y1="1.14385" x2="16" y2="32.4732" gradientUnits="userSpaceOnUse">
<stop stop-color="#5D5C66"/>
<stop offset="1" stop-color="#48474F"/>
</linearGradient>
<clipPath id="clip0_447_478">
<rect width="32" height="32" fill="white" transform="translate(0 0.547852)"/>
</clipPath>
</defs>
</svg>
