<svg width="32" height="33" viewBox="0 0 32 33" fill="none" xmlns="http://www.w3.org/2000/svg">
<path d="M28 13.8813C28 24.548 16 31.2147 16 31.2147C16 31.2147 4 24.548 4 13.8813C4 10.6987 5.26428 7.6465 7.51472 5.39607C9.76515 3.14563 12.8174 1.88135 16 1.88135C19.1826 1.88135 22.2348 3.14563 24.4853 5.39607C26.7357 7.6465 28 10.6987 28 13.8813Z" fill="url(#paint0_linear_447_473)"/>
<path d="M28 13.8813C28 24.548 16 31.2147 16 31.2147C16 31.2147 4 24.548 4 13.8813C4 10.6987 5.26428 7.6465 7.51472 5.39607C9.76515 3.14563 12.8174 1.88135 16 1.88135C19.1826 1.88135 22.2348 3.14563 24.4853 5.39607C26.7357 7.6465 28 10.6987 28 13.8813Z" fill="url(#paint1_linear_447_473)"/>
<path d="M15.9998 19.2145C18.9454 19.2145 21.3332 16.8267 21.3332 13.8812C21.3332 10.9357 18.9454 8.54785 15.9998 8.54785C13.0543 8.54785 10.6665 10.9357 10.6665 13.8812C10.6665 16.8267 13.0543 19.2145 15.9998 19.2145Z" fill="white"/>
<defs>
<linearGradient id="paint0_linear_447_473" x1="16" y1="1.99468" x2="16" y2="31.0467" gradientUnits="userSpaceOnUse">
<stop stop-color="#FF4867"/>
<stop offset="1" stop-color="#E50031"/>
</linearGradient>
<linearGradient id="paint1_linear_447_473" x1="16" y1="2.25068" x2="16" y2="31.192" gradientUnits="userSpaceOnUse">
<stop stop-color="#FFF650"/>
<stop offset="1" stop-color="#FFAB17"/>
</linearGradient>
</defs>
</svg>
