<svg width="32" height="33" viewBox="0 0 32 33" fill="none" xmlns="http://www.w3.org/2000/svg">
<path d="M17.3228 28.4306L21.9895 30.8812C22.459 31.1269 22.9879 31.2364 23.5163 31.1973C24.0448 31.1582 24.5517 30.9722 24.98 30.6601C25.4083 30.3481 25.7407 29.9225 25.9399 29.4314C26.139 28.9404 26.1968 28.4034 26.1068 27.8812L25.2175 22.6906C25.1393 22.2364 25.1728 21.7699 25.3152 21.3316C25.4576 20.8932 25.7046 20.4961 26.0348 20.1746L29.8055 16.4986C30.1852 16.1285 30.4538 15.6596 30.5809 15.1448C30.708 14.6301 30.6886 14.09 30.5247 13.5858C30.3609 13.0815 30.0592 12.6331 29.6538 12.2914C29.2485 11.9496 28.7556 11.7281 28.2308 11.6519L23.0188 10.8946C22.5641 10.8272 22.1324 10.6505 21.7609 10.3797C21.3893 10.109 21.089 9.75218 20.8855 9.33991L18.5482 4.62258C18.3136 4.14711 17.9506 3.74678 17.5003 3.46685C17.05 3.18693 16.5304 3.03857 16.0002 3.03857C15.47 3.03857 14.9504 3.18693 14.5001 3.46685C14.0498 3.74678 13.6868 4.14711 13.4522 4.62258L11.1215 9.34791C10.9181 9.76018 10.6177 10.117 10.2461 10.3877C9.8746 10.6585 9.44295 10.8352 8.98818 10.9026L3.77618 11.6599C3.25147 11.7361 2.75856 11.9576 2.35318 12.2994C1.94781 12.6411 1.64614 13.0895 1.48231 13.5938C1.31847 14.098 1.29901 14.6381 1.4261 15.1528C1.5532 15.6676 1.8218 16.1365 2.20152 16.5066L5.97218 20.1826C6.30244 20.5041 6.54945 20.9012 6.69185 21.3396C6.83426 21.7779 6.86778 22.2444 6.78952 22.6986L5.89352 27.8812C5.80282 28.4042 5.8604 28.942 6.05971 29.4339C6.25903 29.9257 6.59212 30.352 7.02125 30.6642C7.45037 30.9765 7.95838 31.1623 8.4877 31.2007C9.01703 31.239 9.54652 31.1284 10.0162 30.8812L14.6828 28.4306C15.0902 28.2174 15.5431 28.106 16.0028 28.106C16.4626 28.106 16.9155 28.2174 17.3228 28.4306Z" fill="url(#paint0_linear_480_15)"/>
<defs>
<linearGradient id="paint0_linear_480_15" x1="16.0002" y1="2.88791" x2="16.0002" y2="31.3159" gradientUnits="userSpaceOnUse">
<stop stop-color="#FFF650"/>
<stop offset="1" stop-color="#FFAB17"/>
</linearGradient>
</defs>
</svg>
