<svg width="32" height="33" viewBox="0 0 32 33" fill="none" xmlns="http://www.w3.org/2000/svg">
<path d="M6.65317 13.8813H3.99984C3.26346 13.8813 2.6665 14.4783 2.6665 15.2147V25.8813C2.6665 26.6177 3.26346 27.2147 3.99984 27.2147H6.65317C7.38955 27.2147 7.9865 26.6177 7.9865 25.8813V15.2147C7.9865 14.4783 7.38955 13.8813 6.65317 13.8813Z" fill="#464646"/>
<path d="M6.65317 13.8813H3.99984C3.26346 13.8813 2.6665 14.4783 2.6665 15.2147V25.8813C2.6665 26.6177 3.26346 27.2147 3.99984 27.2147H6.65317C7.38955 27.2147 7.9865 26.6177 7.9865 25.8813V15.2147C7.9865 14.4783 7.38955 13.8813 6.65317 13.8813Z" fill="url(#paint0_linear_481_39)"/>
<path d="M10.6667 24.308C10.6624 24.7802 10.7837 25.245 11.0179 25.6549C11.2522 26.0649 11.5911 26.4053 12 26.6413L14.24 27.8813C14.8978 28.313 15.6666 28.5446 16.4533 28.548H26.1333C26.4453 28.5543 26.7495 28.451 26.9932 28.2561C27.2368 28.0612 27.4043 27.7871 27.4667 27.4813L29.3333 17.068C29.4111 16.677 29.4003 16.2736 29.3016 15.8873C29.2029 15.5011 29.0189 15.1419 28.763 14.8362C28.5072 14.5304 28.1861 14.286 27.8233 14.1207C27.4605 13.9555 27.0653 13.8737 26.6667 13.8813H18.6667V7.21468C18.6667 6.86106 18.5262 6.52192 18.2761 6.27187C18.0261 6.02182 17.687 5.88135 17.3333 5.88135H16.4C15.8803 5.88326 15.3725 6.03698 14.9391 6.3236C14.5056 6.61022 14.1653 7.01726 13.96 7.49468L10.9733 14.4547C10.766 14.9531 10.6617 15.4882 10.6667 16.028V24.308Z" fill="#464646"/>
<path d="M10.6667 24.308C10.6624 24.7802 10.7837 25.245 11.0179 25.6549C11.2522 26.0649 11.5911 26.4053 12 26.6413L14.24 27.8813C14.8978 28.313 15.6666 28.5446 16.4533 28.548H26.1333C26.4453 28.5543 26.7495 28.451 26.9932 28.2561C27.2368 28.0612 27.4043 27.7871 27.4667 27.4813L29.3333 17.068C29.4111 16.677 29.4003 16.2736 29.3016 15.8873C29.2029 15.5011 29.0189 15.1419 28.763 14.8362C28.5072 14.5304 28.1861 14.286 27.8233 14.1207C27.4605 13.9555 27.0653 13.8737 26.6667 13.8813H18.6667V7.21468C18.6667 6.86106 18.5262 6.52192 18.2761 6.27187C18.0261 6.02182 17.687 5.88135 17.3333 5.88135H16.4C15.8803 5.88326 15.3725 6.03698 14.9391 6.3236C14.5056 6.61022 14.1653 7.01726 13.96 7.49468L10.9733 14.4547C10.766 14.9531 10.6617 15.4882 10.6667 16.028V24.308Z" fill="url(#paint1_linear_481_39)"/>
<defs>
<linearGradient id="paint0_linear_481_39" x1="5.3259" y1="13.81" x2="5.3259" y2="27.2657" gradientUnits="userSpaceOnUse">
<stop stop-color="#FFF650"/>
<stop offset="1" stop-color="#FFAB17"/>
</linearGradient>
<linearGradient id="paint1_linear_481_39" x1="20.0234" y1="5.76012" x2="20.0234" y2="28.635" gradientUnits="userSpaceOnUse">
<stop stop-color="#FFF650"/>
<stop offset="1" stop-color="#FFAB17"/>
</linearGradient>
</defs>
</svg>
