<svg width="41" height="41" viewBox="0 0 41 41" fill="none" xmlns="http://www.w3.org/2000/svg">
<path d="M30.6665 38.881H10.6665C9.34042 38.881 8.06865 38.3542 7.13097 37.4166C6.19329 36.4789 5.6665 35.2071 5.6665 33.881V7.21436C5.6665 5.88827 6.19329 4.6165 7.13097 3.67882C8.06865 2.74114 9.34042 2.21436 10.6665 2.21436H19.5715C20.4472 2.21432 21.3143 2.38681 22.1233 2.72197C22.9323 3.05713 23.6674 3.54839 24.2865 4.16769L33.7132 13.5944C34.3325 14.2135 34.8237 14.9485 35.1589 15.7575C35.494 16.5666 35.6665 17.4337 35.6665 18.3094V33.881C35.6665 35.2071 35.1397 36.4789 34.202 37.4166C33.2644 38.3542 31.9926 38.881 30.6665 38.881Z" fill="url(#paint0_linear_567_3062)"/>
<path d="M28.9998 33.8812H12.3332C11.8911 33.8812 11.4672 33.7056 11.1547 33.393C10.8421 33.0805 10.6665 32.6565 10.6665 32.2145C10.6665 31.7725 10.8421 31.3486 11.1547 31.036C11.4672 30.7234 11.8911 30.5479 12.3332 30.5479H28.9998C29.4419 30.5479 29.8658 30.7234 30.1783 31.036C30.4909 31.3486 30.6665 31.7725 30.6665 32.2145C30.6665 32.6565 30.4909 33.0805 30.1783 33.393C29.8658 33.7056 29.4419 33.8812 28.9998 33.8812Z" fill="#ED960A"/>
<path d="M18.9998 27.2147H12.3332C11.8911 27.2147 11.4672 27.0391 11.1547 26.7265C10.8421 26.414 10.6665 25.99 10.6665 25.548C10.6665 25.106 10.8421 24.6821 11.1547 24.3695C11.4672 24.0569 11.8911 23.8813 12.3332 23.8813H18.9998C19.4419 23.8813 19.8658 24.0569 20.1783 24.3695C20.4909 24.6821 20.6665 25.106 20.6665 25.548C20.6665 25.99 20.4909 26.414 20.1783 26.7265C19.8658 27.0391 19.4419 27.2147 18.9998 27.2147Z" fill="#ED960A"/>
<path d="M35.0663 15.5478H27.333C26.0069 15.5478 24.7352 15.021 23.7975 14.0833C22.8598 13.1456 22.333 11.8739 22.333 10.5478V2.81445C23.0569 3.14702 23.7169 3.60394 24.283 4.16445L33.7163 13.5978C34.2769 14.1639 34.7338 14.8239 35.0663 15.5478Z" fill="#FFFFBB"/>
<defs>
<linearGradient id="paint0_linear_567_3062" x1="20.6665" y1="2.67602" x2="20.6665" y2="38.8527" gradientUnits="userSpaceOnUse">
<stop stop-color="#FFF650"/>
<stop offset="1" stop-color="#FFAB17"/>
</linearGradient>
</defs>
</svg>
