<svg width="41" height="41" viewBox="0 0 41 41" fill="none" xmlns="http://www.w3.org/2000/svg">
<path d="M38.9997 12.2144V32.2144C38.9997 33.9825 38.2973 35.6782 37.0471 36.9284C35.7968 38.1786 34.1011 38.881 32.333 38.881H8.99967C7.23156 38.881 5.53587 38.1786 4.28563 36.9284C3.03539 35.6782 2.33301 33.9825 2.33301 32.2144V5.54769C2.33565 4.66445 2.68768 3.81813 3.31223 3.19358C3.93678 2.56903 4.7831 2.21699 5.66634 2.21436H15.6663C16.5496 2.21699 17.3959 2.56903 18.0205 3.19358C18.645 3.81813 18.997 4.66445 18.9997 5.54769V8.88102H35.6663C36.5496 8.88366 37.3959 9.2357 38.0205 9.86025C38.645 10.4848 38.997 11.3311 38.9997 12.2144Z" fill="url(#paint0_linear_567_3043)"/>
<path d="M38.9997 12.2144V32.2144C38.9997 33.9825 38.2973 35.6782 37.0471 36.9284C35.7968 38.1786 34.1011 38.881 32.333 38.881H8.99967C7.23156 38.881 5.53587 38.1786 4.28563 36.9284C3.03539 35.6782 2.33301 33.9825 2.33301 32.2144V5.54769C2.33565 4.66445 2.68768 3.81813 3.31223 3.19358C3.93678 2.56903 4.7831 2.21699 5.66634 2.21436H15.6663C16.5496 2.21699 17.3959 2.56903 18.0205 3.19358C18.645 3.81813 18.997 4.66445 18.9997 5.54769V8.88102H35.6663C36.5496 8.88366 37.3959 9.2357 38.0205 9.86025C38.645 10.4848 38.997 11.3311 38.9997 12.2144Z" fill="url(#paint1_linear_567_3043)"/>
<path d="M18.9997 5.54785V8.88118H8.99967C8.55765 8.88118 8.13372 8.70559 7.82116 8.39303C7.5086 8.08047 7.33301 7.65655 7.33301 7.21452C7.33301 6.77249 7.5086 6.34857 7.82116 6.03601C8.13372 5.72345 8.55765 5.54785 8.99967 5.54785H18.9997Z" fill="#EF6D0C"/>
<path d="M18.9997 5.54785V8.88118H8.99967C8.55765 8.88118 8.13372 8.70559 7.82116 8.39303C7.5086 8.08047 7.33301 7.65655 7.33301 7.21452C7.33301 6.77249 7.5086 6.34857 7.82116 6.03601C8.13372 5.72345 8.55765 5.54785 8.99967 5.54785H18.9997Z" fill="#ED960A"/>
<path d="M23.9997 33.8812H8.99967C8.55765 33.8812 8.13372 33.7056 7.82116 33.393C7.5086 33.0805 7.33301 32.6565 7.33301 32.2145C7.33301 31.7725 7.5086 31.3486 7.82116 31.036C8.13372 30.7234 8.55765 30.5479 8.99967 30.5479H23.9997C24.4417 30.5479 24.8656 30.7234 25.1782 31.036C25.4907 31.3486 25.6663 31.7725 25.6663 32.2145C25.6663 32.6565 25.4907 33.0805 25.1782 33.393C24.8656 33.7056 24.4417 33.8812 23.9997 33.8812Z" fill="#FFBC6C"/>
<path d="M23.9997 33.8812H8.99967C8.55765 33.8812 8.13372 33.7056 7.82116 33.393C7.5086 33.0805 7.33301 32.6565 7.33301 32.2145C7.33301 31.7725 7.5086 31.3486 7.82116 31.036C8.13372 30.7234 8.55765 30.5479 8.99967 30.5479H23.9997C24.4417 30.5479 24.8656 30.7234 25.1782 31.036C25.4907 31.3486 25.6663 31.7725 25.6663 32.2145C25.6663 32.6565 25.4907 33.0805 25.1782 33.393C24.8656 33.7056 24.4417 33.8812 23.9997 33.8812Z" fill="#ED960A"/>
<path d="M15.6663 27.2147H8.99967C8.55765 27.2147 8.13372 27.0391 7.82116 26.7265C7.5086 26.414 7.33301 25.99 7.33301 25.548C7.33301 25.106 7.5086 24.6821 7.82116 24.3695C8.13372 24.0569 8.55765 23.8813 8.99967 23.8813H15.6663C16.1084 23.8813 16.5323 24.0569 16.8449 24.3695C17.1574 24.6821 17.333 25.106 17.333 25.548C17.333 25.99 17.1574 26.414 16.8449 26.7265C16.5323 27.0391 16.1084 27.2147 15.6663 27.2147Z" fill="#FFBC6C"/>
<path d="M15.6663 27.2147H8.99967C8.55765 27.2147 8.13372 27.0391 7.82116 26.7265C7.5086 26.414 7.33301 25.99 7.33301 25.548C7.33301 25.106 7.5086 24.6821 7.82116 24.3695C8.13372 24.0569 8.55765 23.8813 8.99967 23.8813H15.6663C16.1084 23.8813 16.5323 24.0569 16.8449 24.3695C17.1574 24.6821 17.333 25.106 17.333 25.548C17.333 25.99 17.1574 26.414 16.8449 26.7265C16.5323 27.0391 16.1084 27.2147 15.6663 27.2147Z" fill="#ED960A"/>
<defs>
<linearGradient id="paint0_linear_567_3043" x1="20.6663" y1="2.35602" x2="20.6663" y2="38.796" gradientUnits="userSpaceOnUse">
<stop stop-color="#FFAA39"/>
<stop offset="1" stop-color="#FF811A"/>
</linearGradient>
<linearGradient id="paint1_linear_567_3043" x1="20.6663" y1="2.67602" x2="20.6663" y2="38.8527" gradientUnits="userSpaceOnUse">
<stop stop-color="#FFF650"/>
<stop offset="1" stop-color="#FFAB17"/>
</linearGradient>
</defs>
</svg>
