<svg width="40" height="41" viewBox="0 0 40 41" fill="none" xmlns="http://www.w3.org/2000/svg">
<path d="M36.9998 16.946L34.4132 16.431C34.1014 15.3285 33.6629 14.2659 33.1065 13.2644L34.5632 11.081C34.777 10.7604 34.873 10.3756 34.8351 9.99211C34.7971 9.60862 34.6274 9.25014 34.3548 8.97769L31.5732 6.19269C31.3007 5.92015 30.9422 5.75045 30.5588 5.71247C30.1753 5.67448 29.7905 5.77056 29.4698 5.98436L27.2865 7.44102C26.285 6.88463 25.2223 6.44616 24.1198 6.13436L23.6015 3.54769C23.5246 3.17095 23.3198 2.8324 23.0218 2.58939C22.7238 2.34639 22.351 2.21389 21.9665 2.21436H18.0332C17.6487 2.21389 17.2758 2.34639 16.9779 2.58939C16.6799 2.8324 16.4751 3.17095 16.3982 3.54769L15.8832 6.13436C14.7807 6.44616 13.7181 6.88463 12.7165 7.44102L10.5332 5.98436C10.2126 5.77056 9.82775 5.67448 9.44426 5.71247C9.06077 5.75045 8.70229 5.92015 8.42984 6.19269L5.64484 8.97436C5.3723 9.24681 5.2026 9.60529 5.16461 9.98878C5.12663 10.3723 5.22271 10.7571 5.43651 11.0777L6.89317 13.261C6.33678 14.2626 5.8983 15.3252 5.58651 16.4277L2.99984 16.946C2.6231 17.0229 2.28454 17.2277 2.04154 17.5257C1.79854 17.8237 1.66604 18.1965 1.66651 18.581V22.5144C1.66604 22.8989 1.79854 23.2717 2.04154 23.5697C2.28454 23.8677 2.6231 24.0725 2.99984 24.1494L5.57984 24.6644C5.89164 25.7668 6.33012 26.8295 6.88651 27.831L5.42984 30.0144C5.21604 30.335 5.11996 30.7198 5.15795 31.1033C5.19593 31.4868 5.36563 31.8452 5.63817 32.1177L8.41984 34.8994C8.69229 35.1719 9.05077 35.3416 9.43426 35.3796C9.81775 35.4176 10.2025 35.3215 10.5232 35.1077L12.7065 33.651C13.7081 34.2074 14.7707 34.6459 15.8732 34.9577L16.3982 37.5477C16.4751 37.9244 16.6799 38.263 16.9779 38.506C17.2758 38.749 17.6487 38.8815 18.0332 38.881H21.9665C22.351 38.8815 22.7238 38.749 23.0218 38.506C23.3198 38.263 23.5246 37.9244 23.6015 37.5477L24.1165 34.9677C25.219 34.6559 26.2816 34.2174 27.2832 33.661L29.4665 35.1177C29.7871 35.3315 30.1719 35.4276 30.5554 35.3896C30.9389 35.3516 31.2974 35.1819 31.5698 34.9094L34.3515 32.1277C34.624 31.8552 34.7937 31.4968 34.8317 31.1133C34.8697 30.7298 34.7736 30.345 34.5598 30.0244L33.1032 27.841C33.6596 26.8395 34.098 25.7768 34.4098 24.6744L36.9898 24.1594C37.3666 24.0825 37.7051 23.8777 37.9481 23.5797C38.1911 23.2817 38.3236 22.9089 38.3232 22.5244V18.581C38.3241 18.1979 38.193 17.8262 37.952 17.5284C37.711 17.2306 37.3747 17.0249 36.9998 16.946Z" fill="url(#paint0_linear_567_3050)"/>
<path d="M36.9998 16.946L34.4132 16.431C34.1014 15.3285 33.6629 14.2659 33.1065 13.2644L34.5632 11.081C34.777 10.7604 34.873 10.3756 34.8351 9.99211C34.7971 9.60862 34.6274 9.25014 34.3548 8.97769L31.5732 6.19269C31.3007 5.92015 30.9422 5.75045 30.5588 5.71247C30.1753 5.67448 29.7905 5.77056 29.4698 5.98436L27.2865 7.44102C26.285 6.88463 25.2223 6.44616 24.1198 6.13436L23.6015 3.54769C23.5246 3.17095 23.3198 2.8324 23.0218 2.58939C22.7238 2.34639 22.351 2.21389 21.9665 2.21436H18.0332C17.6487 2.21389 17.2758 2.34639 16.9779 2.58939C16.6799 2.8324 16.4751 3.17095 16.3982 3.54769L15.8832 6.13436C14.7807 6.44616 13.7181 6.88463 12.7165 7.44102L10.5332 5.98436C10.2126 5.77056 9.82775 5.67448 9.44426 5.71247C9.06077 5.75045 8.70229 5.92015 8.42984 6.19269L5.64484 8.97436C5.3723 9.24681 5.2026 9.60529 5.16461 9.98878C5.12663 10.3723 5.22271 10.7571 5.43651 11.0777L6.89317 13.261C6.33678 14.2626 5.8983 15.3252 5.58651 16.4277L2.99984 16.946C2.6231 17.0229 2.28454 17.2277 2.04154 17.5257C1.79854 17.8237 1.66604 18.1965 1.66651 18.581V22.5144C1.66604 22.8989 1.79854 23.2717 2.04154 23.5697C2.28454 23.8677 2.6231 24.0725 2.99984 24.1494L5.57984 24.6644C5.89164 25.7668 6.33012 26.8295 6.88651 27.831L5.42984 30.0144C5.21604 30.335 5.11996 30.7198 5.15795 31.1033C5.19593 31.4868 5.36563 31.8452 5.63817 32.1177L8.41984 34.8994C8.69229 35.1719 9.05077 35.3416 9.43426 35.3796C9.81775 35.4176 10.2025 35.3215 10.5232 35.1077L12.7065 33.651C13.7081 34.2074 14.7707 34.6459 15.8732 34.9577L16.3982 37.5477C16.4751 37.9244 16.6799 38.263 16.9779 38.506C17.2758 38.749 17.6487 38.8815 18.0332 38.881H21.9665C22.351 38.8815 22.7238 38.749 23.0218 38.506C23.3198 38.263 23.5246 37.9244 23.6015 37.5477L24.1165 34.9677C25.219 34.6559 26.2816 34.2174 27.2832 33.661L29.4665 35.1177C29.7871 35.3315 30.1719 35.4276 30.5554 35.3896C30.9389 35.3516 31.2974 35.1819 31.5698 34.9094L34.3515 32.1277C34.624 31.8552 34.7937 31.4968 34.8317 31.1133C34.8697 30.7298 34.7736 30.345 34.5598 30.0244L33.1032 27.841C33.6596 26.8395 34.098 25.7768 34.4098 24.6744L36.9898 24.1594C37.3666 24.0825 37.7051 23.8777 37.9481 23.5797C38.1911 23.2817 38.3236 22.9089 38.3232 22.5244V18.581C38.3241 18.1979 38.193 17.8262 37.952 17.5284C37.711 17.2306 37.3747 17.0249 36.9998 16.946Z" fill="url(#paint1_linear_567_3050)"/>
<path d="M11.6667 22.2145C11.2246 22.2145 10.8007 22.0389 10.4882 21.7264C10.1756 21.4138 10 20.9899 10 20.5479C10.0026 17.8965 11.0571 15.3545 12.9319 13.4797C14.8066 11.6049 17.3486 10.5505 20 10.5479C20.442 10.5479 20.866 10.7234 21.1785 11.036C21.4911 11.3486 21.6667 11.7725 21.6667 12.2145C21.6667 12.6565 21.4911 13.0805 21.1785 13.393C20.866 13.7056 20.442 13.8812 20 13.8812C18.2319 13.8812 16.5362 14.5836 15.286 15.8338C14.0357 17.084 13.3333 18.7797 13.3333 20.5479C13.3333 20.9899 13.1577 21.4138 12.8452 21.7264C12.5326 22.0389 12.1087 22.2145 11.6667 22.2145Z" fill="#2AC6EA"/>
<path d="M11.6667 22.2145C11.2246 22.2145 10.8007 22.0389 10.4882 21.7264C10.1756 21.4138 10 20.9899 10 20.5479C10.0026 17.8965 11.0571 15.3545 12.9319 13.4797C14.8066 11.6049 17.3486 10.5505 20 10.5479C20.442 10.5479 20.866 10.7234 21.1785 11.036C21.4911 11.3486 21.6667 11.7725 21.6667 12.2145C21.6667 12.6565 21.4911 13.0805 21.1785 13.393C20.866 13.7056 20.442 13.8812 20 13.8812C18.2319 13.8812 16.5362 14.5836 15.286 15.8338C14.0357 17.084 13.3333 18.7797 13.3333 20.5479C13.3333 20.9899 13.1577 21.4138 12.8452 21.7264C12.5326 22.0389 12.1087 22.2145 11.6667 22.2145Z" fill="#ED960A"/>
<path d="M20.0002 30.548C19.5581 30.548 19.1342 30.3724 18.8217 30.0599C18.5091 29.7473 18.3335 29.3234 18.3335 28.8813C18.3335 28.4393 18.5091 28.0154 18.8217 27.7028C19.1342 27.3903 19.5581 27.2147 20.0002 27.2147C21.7683 27.2147 23.464 26.5123 24.7142 25.2621C25.9645 24.0118 26.6668 22.3161 26.6668 20.548C26.6668 20.106 26.8424 19.6821 27.155 19.3695C27.4675 19.0569 27.8915 18.8813 28.3335 18.8813C28.7755 18.8813 29.1994 19.0569 29.512 19.3695C29.8246 19.6821 30.0002 20.106 30.0002 20.548C29.9975 23.1994 28.9431 25.7414 27.0683 27.6162C25.1935 29.4909 22.6515 30.5454 20.0002 30.548Z" fill="#2AC6EA"/>
<path d="M20.0002 30.548C19.5581 30.548 19.1342 30.3724 18.8217 30.0599C18.5091 29.7473 18.3335 29.3234 18.3335 28.8813C18.3335 28.4393 18.5091 28.0154 18.8217 27.7028C19.1342 27.3903 19.5581 27.2147 20.0002 27.2147C21.7683 27.2147 23.464 26.5123 24.7142 25.2621C25.9645 24.0118 26.6668 22.3161 26.6668 20.548C26.6668 20.106 26.8424 19.6821 27.155 19.3695C27.4675 19.0569 27.8915 18.8813 28.3335 18.8813C28.7755 18.8813 29.1994 19.0569 29.512 19.3695C29.8246 19.6821 30.0002 20.106 30.0002 20.548C29.9975 23.1994 28.9431 25.7414 27.0683 27.6162C25.1935 29.4909 22.6515 30.5454 20.0002 30.548Z" fill="#ED960A"/>
<defs>
<linearGradient id="paint0_linear_567_3050" x1="19.9998" y1="2.56936" x2="19.9998" y2="38.541" gradientUnits="userSpaceOnUse">
<stop stop-color="#A6F9FF"/>
<stop offset="1" stop-color="#3ED0F7"/>
</linearGradient>
<linearGradient id="paint1_linear_567_3050" x1="19.9948" y1="2.67602" x2="19.9948" y2="38.8527" gradientUnits="userSpaceOnUse">
<stop stop-color="#FFF650"/>
<stop offset="1" stop-color="#FFAB17"/>
</linearGradient>
</defs>
</svg>
