<svg width="41" height="41" viewBox="0 0 41 41" fill="none" xmlns="http://www.w3.org/2000/svg">
<path d="M29.6785 25.1978L37.6785 33.1978C38.3018 33.821 38.6519 34.6663 38.6519 35.5478C38.6519 36.4292 38.3018 37.2745 37.6785 37.8978C37.0553 38.521 36.2099 38.8712 35.3285 38.8712C34.4471 38.8712 33.6018 38.521 32.9785 37.8978L24.9785 29.8978L29.6785 25.1978Z" fill="url(#paint0_linear_567_3056)"/>
<path d="M16.9971 32.2144C25.2813 32.2144 31.9971 25.4986 31.9971 17.2144C31.9971 8.93008 25.2813 2.21436 16.9971 2.21436C8.7128 2.21436 1.99707 8.93008 1.99707 17.2144C1.99707 25.4986 8.7128 32.2144 16.9971 32.2144Z" fill="url(#paint1_linear_567_3056)"/>
<path d="M16.9971 32.2144C25.2813 32.2144 31.9971 25.4986 31.9971 17.2144C31.9971 8.93008 25.2813 2.21436 16.9971 2.21436C8.7128 2.21436 1.99707 8.93008 1.99707 17.2144C1.99707 25.4986 8.7128 32.2144 16.9971 32.2144Z" fill="url(#paint2_linear_567_3056)"/>
<path d="M8.66667 18.881C8.22464 18.881 7.80072 18.7054 7.48816 18.3929C7.1756 18.0803 7 17.6564 7 17.2144C7.00265 14.563 8.05707 12.021 9.93186 10.1462C11.8066 8.27142 14.3486 7.217 17 7.21436C17.442 7.21436 17.866 7.38995 18.1785 7.70251C18.4911 8.01507 18.6667 8.43899 18.6667 8.88102C18.6667 9.32305 18.4911 9.74697 18.1785 10.0595C17.866 10.3721 17.442 10.5477 17 10.5477C15.2319 10.5477 13.5362 11.2501 12.286 12.5003C11.0357 13.7506 10.3333 15.4462 10.3333 17.2144C10.3333 17.6564 10.1577 18.0803 9.84518 18.3929C9.53262 18.7054 9.10869 18.881 8.66667 18.881Z" fill="#CFFEFF"/>
<path d="M8.66667 18.881C8.22464 18.881 7.80072 18.7054 7.48816 18.3929C7.1756 18.0803 7 17.6564 7 17.2144C7.00265 14.563 8.05707 12.021 9.93186 10.1462C11.8066 8.27142 14.3486 7.217 17 7.21436C17.442 7.21436 17.866 7.38995 18.1785 7.70251C18.4911 8.01507 18.6667 8.43899 18.6667 8.88102C18.6667 9.32305 18.4911 9.74697 18.1785 10.0595C17.866 10.3721 17.442 10.5477 17 10.5477C15.2319 10.5477 13.5362 11.2501 12.286 12.5003C11.0357 13.7506 10.3333 15.4462 10.3333 17.2144C10.3333 17.6564 10.1577 18.0803 9.84518 18.3929C9.53262 18.7054 9.10869 18.881 8.66667 18.881Z" fill="#ED960A"/>
<defs>
<linearGradient id="paint0_linear_567_3056" x1="31.8235" y1="26.0261" x2="31.8235" y2="38.2378" gradientUnits="userSpaceOnUse">
<stop stop-color="#5D5C66"/>
<stop offset="1" stop-color="#48474F"/>
</linearGradient>
<linearGradient id="paint1_linear_567_3056" x1="16.9971" y1="2.46269" x2="16.9971" y2="31.6344" gradientUnits="userSpaceOnUse">
<stop stop-color="#A6F9FF"/>
<stop offset="1" stop-color="#3ED0F7"/>
</linearGradient>
<linearGradient id="paint2_linear_567_3056" x1="16.9971" y1="2.59208" x2="16.9971" y2="32.1912" gradientUnits="userSpaceOnUse">
<stop stop-color="#FFF650"/>
<stop offset="1" stop-color="#FFAB17"/>
</linearGradient>
</defs>
</svg>
