<svg width="48" height="49" viewBox="0 0 48 49" fill="none" xmlns="http://www.w3.org/2000/svg">
<path d="M40 36.5479V40.5479C40 42.1392 39.3679 43.6653 38.2426 44.7905C37.1174 45.9157 35.5913 46.5479 34 46.5479H14C12.4087 46.5479 10.8826 45.9157 9.75736 44.7905C8.63214 43.6653 8 42.1392 8 40.5479V36.5479H40Z" fill="url(#paint0_linear_567_2343)"/>
<path d="M40 36.5479V40.5479C40 42.1392 39.3679 43.6653 38.2426 44.7905C37.1174 45.9157 35.5913 46.5479 34 46.5479H14C12.4087 46.5479 10.8826 45.9157 9.75736 44.7905C8.63214 43.6653 8 42.1392 8 40.5479V36.5479H40Z" fill="url(#paint1_linear_567_2343)"/>
<path d="M40 8.54785V36.5478H8V8.54785C8 6.95655 8.63214 5.43043 9.75736 4.30521C10.8826 3.17999 12.4087 2.54785 14 2.54785H34C35.5913 2.54785 37.1174 3.17999 38.2426 4.30521C39.3679 5.43043 40 6.95655 40 8.54785Z" fill="url(#paint2_linear_567_2343)"/>
<path d="M40 8.54785V36.5478H8V8.54785C8 6.95655 8.63214 5.43043 9.75736 4.30521C10.8826 3.17999 12.4087 2.54785 14 2.54785H34C35.5913 2.54785 37.1174 3.17999 38.2426 4.30521C39.3679 5.43043 40 6.95655 40 8.54785Z" fill="url(#paint3_linear_567_2343)"/>
<path d="M26 10.5479H22C21.4696 10.5479 20.9609 10.3371 20.5858 9.96207C20.2107 9.58699 20 9.07828 20 8.54785C20 8.01742 20.2107 7.50871 20.5858 7.13364C20.9609 6.75857 21.4696 6.54785 22 6.54785H26C26.5304 6.54785 27.0391 6.75857 27.4142 7.13364C27.7893 7.50871 28 8.01742 28 8.54785C28 9.07828 27.7893 9.58699 27.4142 9.96207C27.0391 10.3371 26.5304 10.5479 26 10.5479Z" fill="url(#paint4_linear_567_2343)"/>
<path d="M26 10.5479H22C21.4696 10.5479 20.9609 10.3371 20.5858 9.96207C20.2107 9.58699 20 9.07828 20 8.54785C20 8.01742 20.2107 7.50871 20.5858 7.13364C20.9609 6.75857 21.4696 6.54785 22 6.54785H26C26.5304 6.54785 27.0391 6.75857 27.4142 7.13364C27.7893 7.50871 28 8.01742 28 8.54785C28 9.07828 27.7893 9.58699 27.4142 9.96207C27.0391 10.3371 26.5304 10.5479 26 10.5479Z" fill="#ED960A"/>
<defs>
<linearGradient id="paint0_linear_567_2343" x1="24" y1="2.63385" x2="24" y2="45.4439" gradientUnits="userSpaceOnUse">
<stop stop-color="#5D5C66"/>
<stop offset="1" stop-color="#48474F"/>
</linearGradient>
<linearGradient id="paint1_linear_567_2343" x1="24.0194" y1="37.1537" x2="24.0194" y2="46.0846" gradientUnits="userSpaceOnUse">
<stop stop-color="#5D5C66"/>
<stop offset="1" stop-color="#48474F"/>
</linearGradient>
<linearGradient id="paint2_linear_567_2343" x1="24" y1="2.63385" x2="24" y2="45.4438" gradientUnits="userSpaceOnUse">
<stop stop-color="#A6F9FF"/>
<stop offset="1" stop-color="#3ED0F7"/>
</linearGradient>
<linearGradient id="paint3_linear_567_2343" x1="24" y1="2.97594" x2="24" y2="36.5216" gradientUnits="userSpaceOnUse">
<stop stop-color="#FFF650"/>
<stop offset="1" stop-color="#FFAB17"/>
</linearGradient>
<linearGradient id="paint4_linear_567_2343" x1="24" y1="5.01585" x2="24" y2="13.0819" gradientUnits="userSpaceOnUse">
<stop stop-color="#5D5C66"/>
<stop offset="1" stop-color="#48474F"/>
</linearGradient>
</defs>
</svg>
