<svg width="46" height="40" viewBox="0 0 46 40" fill="none" xmlns="http://www.w3.org/2000/svg">
<path d="M35 37.5479C35 38.3729 34.325 39.0479 33.5 39.0479H12.5C11.675 39.0479 11 38.3729 11 37.5479C11 33.4079 14.36 30.0479 18.5 30.0479H27.5C31.64 30.0479 35 33.4079 35 37.5479Z" fill="#FFC10A"/>
<path d="M35 37.5479C35 38.3729 34.325 39.0479 33.5 39.0479H12.5C11.675 39.0479 11 38.3729 11 37.5479C11 33.4079 14.36 30.0479 18.5 30.0479H27.5C31.64 30.0479 35 33.4079 35 37.5479Z" fill="url(#paint0_linear_567_2331)"/>
<path d="M45.5 4.54785V28.5479C45.5 31.0229 43.475 33.0479 41 33.0479H5C2.525 33.0479 0.5 31.0229 0.5 28.5479V4.54785C0.5 2.07285 2.525 0.0478516 5 0.0478516H41C43.475 0.0478516 45.5 2.07285 45.5 4.54785Z" fill="#2197F3"/>
<path d="M45.5 4.54785V28.5479C45.5 31.0229 43.475 33.0479 41 33.0479H5C2.525 33.0479 0.5 31.0229 0.5 28.5479V4.54785C0.5 2.07285 2.525 0.0478516 5 0.0478516H41C43.475 0.0478516 45.5 2.07285 45.5 4.54785Z" fill="url(#paint1_linear_567_2331)"/>
<path d="M27.5 28.5479H18.5C17.6717 28.5479 17 27.8762 17 27.0479C17 26.2196 17.6717 25.5479 18.5 25.5479H27.5C28.3283 25.5479 29 26.2196 29 27.0479C29 27.8762 28.3283 28.5479 27.5 28.5479Z" fill="#3F51B5"/>
<path d="M27.5 28.5479H18.5C17.6717 28.5479 17 27.8762 17 27.0479C17 26.2196 17.6717 25.5479 18.5 25.5479H27.5C28.3283 25.5479 29 26.2196 29 27.0479C29 27.8762 28.3283 28.5479 27.5 28.5479Z" fill="#ED960A"/>
<defs>
<linearGradient id="paint0_linear_567_2331" x1="23.0146" y1="30.5931" x2="23.0146" y2="38.6309" gradientUnits="userSpaceOnUse">
<stop stop-color="#5D5C66"/>
<stop offset="1" stop-color="#48474F"/>
</linearGradient>
<linearGradient id="paint1_linear_567_2331" x1="23" y1="0.463352" x2="23" y2="33.0224" gradientUnits="userSpaceOnUse">
<stop stop-color="#FFF650"/>
<stop offset="1" stop-color="#FFAB17"/>
</linearGradient>
</defs>
</svg>
