<svg width="48" height="49" viewBox="0 0 48 49" fill="none" xmlns="http://www.w3.org/2000/svg">
<path d="M35.2142 30.1279L44.8142 39.7279C45.5621 40.4758 45.9823 41.4902 45.9823 42.5479C45.9823 43.6056 45.5621 44.62 44.8142 45.3679C44.0663 46.1158 43.0519 46.536 41.9942 46.536C40.9365 46.536 39.9221 46.1158 39.1742 45.3679L29.5742 35.7679L35.2142 30.1279Z" fill="url(#paint0_linear_567_2306)"/>
<path d="M19.9961 38.5479C29.9372 38.5479 37.9961 30.489 37.9961 20.5479C37.9961 10.6067 29.9372 2.54785 19.9961 2.54785C10.055 2.54785 1.99609 10.6067 1.99609 20.5479C1.99609 30.489 10.055 38.5479 19.9961 38.5479Z" fill="url(#paint1_linear_567_2306)"/>
<path d="M19.9961 38.5479C29.9372 38.5479 37.9961 30.489 37.9961 20.5479C37.9961 10.6067 29.9372 2.54785 19.9961 2.54785C10.055 2.54785 1.99609 10.6067 1.99609 20.5479C1.99609 30.489 10.055 38.5479 19.9961 38.5479Z" fill="url(#paint2_linear_567_2306)"/>
<path d="M10 22.5479C9.46957 22.5479 8.96086 22.3371 8.58579 21.9621C8.21071 21.587 8 21.0783 8 20.5479C8.00318 17.3662 9.26848 14.3158 11.5182 12.0661C13.768 9.81633 16.8184 8.55103 20 8.54785C20.5304 8.54785 21.0391 8.75857 21.4142 9.13364C21.7893 9.50871 22 10.0174 22 10.5479C22 11.0783 21.7893 11.587 21.4142 11.9621C21.0391 12.3371 20.5304 12.5479 20 12.5479C17.8783 12.5479 15.8434 13.3907 14.3431 14.891C12.8429 16.3913 12 18.4261 12 20.5479C12 21.0783 11.7893 21.587 11.4142 21.9621C11.0391 22.3371 10.5304 22.5479 10 22.5479Z" fill="#CFFEFF"/>
<path d="M10 22.5479C9.46957 22.5479 8.96086 22.3371 8.58579 21.9621C8.21071 21.587 8 21.0783 8 20.5479C8.00318 17.3662 9.26848 14.3158 11.5182 12.0661C13.768 9.81633 16.8184 8.55103 20 8.54785C20.5304 8.54785 21.0391 8.75857 21.4142 9.13364C21.7893 9.50871 22 10.0174 22 10.5479C22 11.0783 21.7893 11.587 21.4142 11.9621C21.0391 12.3371 20.5304 12.5479 20 12.5479C17.8783 12.5479 15.8434 13.3907 14.3431 14.891C12.8429 16.3913 12 18.4261 12 20.5479C12 21.0783 11.7893 21.587 11.4142 21.9621C11.0391 22.3371 10.5304 22.5479 10 22.5479Z" fill="#ED960A"/>
<defs>
<linearGradient id="paint0_linear_567_2306" x1="37.7882" y1="31.1219" x2="37.7882" y2="45.7759" gradientUnits="userSpaceOnUse">
<stop stop-color="#5D5C66"/>
<stop offset="1" stop-color="#48474F"/>
</linearGradient>
<linearGradient id="paint1_linear_567_2306" x1="19.9961" y1="2.84585" x2="19.9961" y2="37.8519" gradientUnits="userSpaceOnUse">
<stop stop-color="#A6F9FF"/>
<stop offset="1" stop-color="#3ED0F7"/>
</linearGradient>
<linearGradient id="paint2_linear_567_2306" x1="19.9961" y1="3.00112" x2="19.9961" y2="38.52" gradientUnits="userSpaceOnUse">
<stop stop-color="#FFF650"/>
<stop offset="1" stop-color="#FFAB17"/>
</linearGradient>
</defs>
</svg>
