<svg width="42" height="37" viewBox="0 0 42 37" fill="none" xmlns="http://www.w3.org/2000/svg">
<path d="M36 0.547852H6C2.68629 0.547852 0 3.23414 0 6.54785V30.5479C0 33.8616 2.68629 36.5479 6 36.5479H36C39.3137 36.5479 42 33.8616 42 30.5479V6.54785C42 3.23414 39.3137 0.547852 36 0.547852Z" fill="#D8E1EF"/>
<path d="M36 0.547852H6C2.68629 0.547852 0 3.23414 0 6.54785V30.5479C0 33.8616 2.68629 36.5479 6 36.5479H36C39.3137 36.5479 42 33.8616 42 30.5479V6.54785C42 3.23414 39.3137 0.547852 36 0.547852Z" fill="url(#paint0_linear_567_2316)"/>
<path d="M42 6.54785V9.54785H0V6.54785C0 4.95655 0.632141 3.43043 1.75736 2.30521C2.88258 1.17999 4.4087 0.547852 6 0.547852H36C37.5913 0.547852 39.1174 1.17999 40.2426 2.30521C41.3679 3.43043 42 4.95655 42 6.54785Z" fill="#0593FF"/>
<path d="M42 6.54785V9.54785H0V6.54785C0 4.95655 0.632141 3.43043 1.75736 2.30521C2.88258 1.17999 4.4087 0.547852 6 0.547852H36C37.5913 0.547852 39.1174 1.17999 40.2426 2.30521C41.3679 3.43043 42 4.95655 42 6.54785Z" fill="url(#paint1_linear_567_2316)"/>
<path d="M33 18.5479H9C8.60218 18.5479 8.22064 18.3898 7.93934 18.1085C7.65804 17.8272 7.5 17.4457 7.5 17.0479C7.5 16.65 7.65804 16.2685 7.93934 15.9872C8.22064 15.7059 8.60218 15.5479 9 15.5479H33C33.3978 15.5479 33.7794 15.7059 34.0607 15.9872C34.342 16.2685 34.5 16.65 34.5 17.0479C34.5 17.4457 34.342 17.8272 34.0607 18.1085C33.7794 18.3898 33.3978 18.5479 33 18.5479Z" fill="#0593FF"/>
<path d="M33 18.5479H9C8.60218 18.5479 8.22064 18.3898 7.93934 18.1085C7.65804 17.8272 7.5 17.4457 7.5 17.0479C7.5 16.65 7.65804 16.2685 7.93934 15.9872C8.22064 15.7059 8.60218 15.5479 9 15.5479H33C33.3978 15.5479 33.7794 15.7059 34.0607 15.9872C34.342 16.2685 34.5 16.65 34.5 17.0479C34.5 17.4457 34.342 17.8272 34.0607 18.1085C33.7794 18.3898 33.3978 18.5479 33 18.5479Z" fill="#ED960A"/>
<path d="M33 24.5479H9C8.60218 24.5479 8.22064 24.3898 7.93934 24.1085C7.65804 23.8272 7.5 23.4457 7.5 23.0479C7.5 22.65 7.65804 22.2685 7.93934 21.9872C8.22064 21.7059 8.60218 21.5479 9 21.5479H33C33.3978 21.5479 33.7794 21.7059 34.0607 21.9872C34.342 22.2685 34.5 22.65 34.5 23.0479C34.5 23.4457 34.342 23.8272 34.0607 24.1085C33.7794 24.3898 33.3978 24.5479 33 24.5479Z" fill="#0593FF"/>
<path d="M33 24.5479H9C8.60218 24.5479 8.22064 24.3898 7.93934 24.1085C7.65804 23.8272 7.5 23.4457 7.5 23.0479C7.5 22.65 7.65804 22.2685 7.93934 21.9872C8.22064 21.7059 8.60218 21.5479 9 21.5479H33C33.3978 21.5479 33.7794 21.7059 34.0607 21.9872C34.342 22.2685 34.5 22.65 34.5 23.0479C34.5 23.4457 34.342 23.8272 34.0607 24.1085C33.7794 24.3898 33.3978 24.5479 33 24.5479Z" fill="#ED960A"/>
<path d="M19.5 30.5479H9C8.60218 30.5479 8.22064 30.3898 7.93934 30.1085C7.65804 29.8272 7.5 29.4457 7.5 29.0479C7.5 28.65 7.65804 28.2685 7.93934 27.9872C8.22064 27.7059 8.60218 27.5479 9 27.5479H19.5C19.8978 27.5479 20.2794 27.7059 20.5607 27.9872C20.842 28.2685 21 28.65 21 29.0479C21 29.4457 20.842 29.8272 20.5607 30.1085C20.2794 30.3898 19.8978 30.5479 19.5 30.5479Z" fill="#0593FF"/>
<path d="M19.5 30.5479H9C8.60218 30.5479 8.22064 30.3898 7.93934 30.1085C7.65804 29.8272 7.5 29.4457 7.5 29.0479C7.5 28.65 7.65804 28.2685 7.93934 27.9872C8.22064 27.7059 8.60218 27.5479 9 27.5479H19.5C19.8978 27.5479 20.2794 27.7059 20.5607 27.9872C20.842 28.2685 21 28.65 21 29.0479C21 29.4457 20.842 29.8272 20.5607 30.1085C20.2794 30.3898 19.8978 30.5479 19.5 30.5479Z" fill="#ED960A"/>
<path d="M16.5 6.54785C17.3284 6.54785 18 5.87628 18 5.04785C18 4.21942 17.3284 3.54785 16.5 3.54785C15.6716 3.54785 15 4.21942 15 5.04785C15 5.87628 15.6716 6.54785 16.5 6.54785Z" fill="black"/>
<path d="M12 6.54785C12.8284 6.54785 13.5 5.87628 13.5 5.04785C13.5 4.21942 12.8284 3.54785 12 3.54785C11.1716 3.54785 10.5 4.21942 10.5 5.04785C10.5 5.87628 11.1716 6.54785 12 6.54785Z" fill="black"/>
<path d="M7.5 6.54785C8.32843 6.54785 9 5.87628 9 5.04785C9 4.21942 8.32843 3.54785 7.5 3.54785C6.67157 3.54785 6 4.21942 6 5.04785C6 5.87628 6.67157 6.54785 7.5 6.54785Z" fill="black"/>
<defs>
<linearGradient id="paint0_linear_567_2316" x1="21" y1="1.00112" x2="21" y2="36.52" gradientUnits="userSpaceOnUse">
<stop stop-color="#FFF650"/>
<stop offset="1" stop-color="#FFAB17"/>
</linearGradient>
<linearGradient id="paint1_linear_567_2316" x1="21.0255" y1="1.09307" x2="21.0255" y2="9.13094" gradientUnits="userSpaceOnUse">
<stop stop-color="#5D5C66"/>
<stop offset="1" stop-color="#48474F"/>
</linearGradient>
</defs>
</svg>
