<svg  viewBox="0 0 275 77" fill="none" xmlns="http://www.w3.org/2000/svg">
<path d="M27.6185 56.0174C21.8585 56.0174 16.9108 54.9097 12.7754 52.6944C8.64001 50.479 5.46462 47.3528 3.24923 43.3159C1.08308 39.279 0 34.5528 0 29.1374C0 25.1005 0.615385 21.4328 1.84616 18.1344C3.12616 14.8359 4.9477 12.0051 7.31078 9.64205C9.72309 7.27897 12.6277 5.48205 16.0246 4.25128C19.4708 2.97128 23.3354 2.33128 27.6185 2.33128C29.8831 2.33128 32.2216 2.60205 34.6339 3.14359C37.0954 3.63589 39.2616 4.39897 41.1324 5.43282C42.5108 6.17128 43.4708 7.10666 44.0124 8.23897C44.5539 9.37128 44.7262 10.5282 44.5293 11.7097C44.3816 12.8913 43.9631 13.9497 43.2739 14.8851C42.5847 15.8205 41.6985 16.4605 40.6154 16.8051C39.5323 17.1005 38.3508 16.9282 37.0708 16.2882C35.5939 15.599 34.117 15.082 32.64 14.7374C31.2123 14.3436 29.7108 14.1467 28.1354 14.1467C25.0831 14.1467 22.5231 14.7374 20.4554 15.919C18.4369 17.0513 16.9108 18.7251 15.8769 20.9405C14.8431 23.1559 14.3262 25.8882 14.3262 29.1374C14.3262 32.3867 14.8431 35.1436 15.8769 37.4082C16.9108 39.6236 18.4369 41.322 20.4554 42.5036C22.5231 43.6359 25.0831 44.202 28.1354 44.202C29.4154 44.202 30.7939 44.0544 32.2708 43.759C33.7477 43.4144 35.2 42.8974 36.6277 42.2082C38.1047 41.5682 39.4093 41.3959 40.5416 41.6913C41.7231 41.9867 42.6585 42.5774 43.3477 43.4636C44.0862 44.3497 44.5539 45.3836 44.7508 46.5651C44.9477 47.6974 44.7754 48.8297 44.2339 49.962C43.7416 51.0944 42.8554 52.0051 41.5754 52.6944C39.8523 53.7282 37.7108 54.5405 35.1508 55.1313C32.64 55.722 30.1293 56.0174 27.6185 56.0174Z" fill="white"/>
<path d="M65.0937 56.0174C60.3676 56.0174 56.8722 54.762 54.6075 52.2513C52.3922 49.6913 51.2845 45.8513 51.2845 40.7313V9.12513C51.2845 6.95897 51.8506 5.30974 52.9829 4.17743C54.1152 3.04512 55.7152 2.47897 57.7829 2.47897C59.8999 2.47897 61.5245 3.04512 62.6568 4.17743C63.8383 5.30974 64.4291 6.95897 64.4291 9.12513V40.2882C64.4291 42.1097 64.7737 43.439 65.4629 44.2759C66.2014 45.1128 67.1368 45.5313 68.2691 45.5313C68.6137 45.5313 68.9583 45.5067 69.3029 45.4574C69.6968 45.359 70.1153 45.2851 70.5583 45.2359C71.3953 45.2359 72.0106 45.5559 72.4045 46.1959C72.8476 46.8359 73.0691 48.1405 73.0691 50.1097C73.0691 51.8328 72.7245 53.1374 72.0353 54.0236C71.346 54.8605 70.2876 55.402 68.8599 55.6482C68.466 55.6974 67.8999 55.7713 67.1614 55.8697C66.423 55.9682 65.7337 56.0174 65.0937 56.0174Z" fill="white"/>
<path d="M83.456 55.8697C81.3883 55.8697 79.7883 55.2544 78.656 54.0236C77.5237 52.7928 76.9576 51.0205 76.9576 48.7067V25.3713C76.9576 23.0574 77.5237 21.2851 78.656 20.0544C79.7883 18.8236 81.3883 18.2082 83.456 18.2082C85.573 18.2082 87.1976 18.8236 88.3299 20.0544C89.5114 21.2851 90.1022 23.0574 90.1022 25.3713V48.7067C90.1022 51.0205 89.536 52.7928 88.4037 54.0236C87.2714 55.2544 85.6222 55.8697 83.456 55.8697ZM83.456 12.9651C81.1422 12.9651 79.3453 12.4236 78.0653 11.3405C76.8345 10.2574 76.2191 8.68205 76.2191 6.61435C76.2191 4.59589 76.8345 3.04512 78.0653 1.96205C79.3453 0.878972 81.1422 0.337433 83.456 0.337433C85.8684 0.337433 87.6899 0.878972 88.9207 1.96205C90.1514 3.04512 90.7668 4.59589 90.7668 6.61435C90.7668 8.68205 90.1514 10.2574 88.9207 11.3405C87.6899 12.4236 85.8684 12.9651 83.456 12.9651Z" fill="white"/>
<path d="M116.262 56.0174C112.176 56.0174 108.607 55.2544 105.555 53.7282C102.551 52.202 100.213 50.0113 98.5391 47.1559C96.8653 44.2513 96.0284 40.8544 96.0284 36.9651C96.0284 34.0113 96.4961 31.3774 97.4314 29.0636C98.3668 26.7005 99.7207 24.7067 101.493 23.082C103.315 21.4574 105.456 20.2267 107.918 19.3897C110.428 18.5036 113.21 18.0605 116.262 18.0605C117.69 18.0605 119.191 18.2082 120.767 18.5036C122.342 18.7497 123.967 19.242 125.641 19.9805C126.822 20.4236 127.635 21.1128 128.078 22.0482C128.57 22.9344 128.767 23.8944 128.668 24.9282C128.619 25.962 128.324 26.8974 127.782 27.7344C127.29 28.5713 126.576 29.1374 125.641 29.4328C124.755 29.7282 123.745 29.6051 122.613 29.0636C121.825 28.6697 120.988 28.399 120.102 28.2513C119.265 28.0544 118.453 27.9559 117.665 27.9559C116.336 27.9559 115.155 28.1528 114.121 28.5467C113.136 28.9405 112.299 29.5313 111.61 30.319C110.921 31.0574 110.379 31.9928 109.985 33.1251C109.641 34.2574 109.468 35.5374 109.468 36.9651C109.468 39.8205 110.182 42.0605 111.61 43.6851C113.038 45.3097 115.056 46.122 117.665 46.122C118.453 46.122 119.265 46.0482 120.102 45.9005C120.939 45.7036 121.776 45.4082 122.613 45.0144C123.745 44.4728 124.755 44.3744 125.641 44.719C126.527 45.0144 127.241 45.5805 127.782 46.4174C128.324 47.2544 128.619 48.1897 128.668 49.2236C128.718 50.2082 128.496 51.1682 128.004 52.1036C127.511 52.9897 126.675 53.6544 125.493 54.0974C123.868 54.8359 122.268 55.3282 120.693 55.5744C119.167 55.8697 117.69 56.0174 116.262 56.0174Z" fill="white"/>
<path d="M139.995 55.8697C137.927 55.8697 136.327 55.3036 135.195 54.1713C134.062 53.039 133.496 51.3897 133.496 49.2236V9.12513C133.496 6.95897 134.062 5.30974 135.195 4.17743C136.327 3.04512 137.927 2.47897 139.995 2.47897C142.111 2.47897 143.736 3.04512 144.868 4.17743C146.05 5.30974 146.641 6.95897 146.641 9.12513V33.4944H146.788L155.798 22.5651C157.028 21.0882 158.161 20.0051 159.195 19.3159C160.278 18.5774 161.73 18.2082 163.551 18.2082C165.373 18.2082 166.776 18.6513 167.761 19.5374C168.745 20.4236 169.262 21.5313 169.312 22.8605C169.361 24.1897 168.819 25.519 167.687 26.8482L157.939 38.3682V33.7897L168.868 47.5251C169.952 48.9036 170.395 50.2574 170.198 51.5867C170.001 52.8667 169.361 53.9005 168.278 54.6882C167.244 55.4759 165.915 55.8697 164.29 55.8697C162.321 55.8697 160.745 55.5251 159.564 54.8359C158.382 54.0974 157.201 52.9651 156.019 51.439L146.788 40.0667H146.641V49.2236C146.641 53.6544 144.425 55.8697 139.995 55.8697Z" fill="white"/>
<path d="M185.522 69.162C183.996 69.162 182.766 68.7682 181.83 67.9805C180.895 67.1928 180.304 66.159 180.058 64.879C179.861 63.599 180.082 62.2451 180.722 60.8174L185.67 50.1097V55.4267L173.042 26.5528C172.402 25.0759 172.181 23.6974 172.378 22.4174C172.624 21.1374 173.289 20.1282 174.372 19.3897C175.455 18.602 176.932 18.2082 178.802 18.2082C180.378 18.2082 181.633 18.5774 182.569 19.3159C183.553 20.0051 184.439 21.3836 185.227 23.4513L192.612 42.6513H190.101L197.929 23.3774C198.716 21.359 199.603 20.0051 200.587 19.3159C201.621 18.5774 202.999 18.2082 204.723 18.2082C206.199 18.2082 207.381 18.602 208.267 19.3897C209.153 20.1282 209.695 21.1374 209.892 22.4174C210.089 23.6974 209.867 25.0759 209.227 26.5528L192.464 64.2144C191.578 66.1836 190.593 67.4882 189.51 68.1282C188.476 68.8174 187.147 69.162 185.522 69.162Z" fill="white"/>
<g clip-path="url(#clip0_655_2)">
<path fill-rule="evenodd" clip-rule="evenodd" d="M241.115 61.3411L243.404 58.5896L249.725 69.4421L263.558 61.5253L257.237 50.6728L260.786 50.0833C262.784 49.7539 264.401 48.2674 264.888 46.3128C265.376 44.3582 264.653 42.2922 263.038 41.054L235.632 20.0492C235.076 19.6278 234.477 19.325 233.82 19.1489C232.171 18.7071 230.415 19.1133 229.12 20.2474C227.842 21.3624 227.213 23.0422 227.442 24.7268L232.089 58.7568C232.366 60.7979 233.887 62.4732 235.848 62.9985C237.808 63.5238 239.828 62.892 241.115 61.3411ZM233.531 22.7682L260.926 43.7701L260.937 43.773C262.084 44.661 261.635 46.4718 260.211 46.7064L251.752 48.1128L258.833 60.271L250.992 64.758L243.911 52.5998L238.453 59.1586C237.536 60.2637 235.718 59.741 235.527 58.3154L230.88 24.2854C230.672 22.8317 232.35 21.8713 233.531 22.7682Z" fill="white"/>
<path d="M241.506 16.5757L236.867 18.4726" stroke="white" stroke-width="3.18" stroke-linecap="round" stroke-linejoin="round"/>
<path d="M235.322 10.4279L233.421 15.0254" stroke="white" stroke-width="3.18" stroke-linecap="round" stroke-linejoin="round"/>
<path d="M228.539 15.0207L226.621 10.4189" stroke="white" stroke-width="3.18" stroke-linecap="round" stroke-linejoin="round"/>
<path d="M225.091 18.445L220.458 16.5285" stroke="white" stroke-width="3.18" stroke-linecap="round" stroke-linejoin="round"/>
<path d="M225.105 23.2948L220.48 25.1836" stroke="white" stroke-width="3.18" stroke-linecap="round" stroke-linejoin="round"/>
</g>
<path d="M16.3657 76.8657C16.0984 76.8657 15.8892 76.7901 15.738 76.639C15.5986 76.4879 15.5288 76.2786 15.5288 76.0113V65.1836C15.5288 64.9046 15.6044 64.6954 15.7555 64.5559C15.9066 64.4048 16.11 64.3292 16.3657 64.3292C16.6098 64.3292 16.7958 64.3757 16.9237 64.4687C17.0632 64.5501 17.191 64.7012 17.3073 64.9221L21.8755 73.4482H21.335L25.8857 64.9221C26.002 64.7012 26.124 64.5501 26.2519 64.4687C26.3798 64.3757 26.5657 64.3292 26.8098 64.3292C27.0656 64.3292 27.2632 64.4048 27.4027 64.5559C27.5422 64.6954 27.6119 64.9046 27.6119 65.1836V76.0113C27.6119 76.2786 27.5422 76.4879 27.4027 76.639C27.2748 76.7901 27.0772 76.8657 26.8098 76.8657C26.5425 76.8657 26.3391 76.7901 26.1996 76.639C26.0601 76.4879 25.9904 76.2786 25.9904 76.0113V67.0144H26.3739L22.3288 74.4944C22.2358 74.6687 22.137 74.7966 22.0324 74.878C21.9278 74.9593 21.7825 75 21.5965 75C21.4105 75 21.2594 74.9593 21.1432 74.878C21.0269 74.785 20.9223 74.6571 20.8293 74.4944L16.7493 66.9969H17.1678V76.0113C17.1678 76.2786 17.098 76.4879 16.9586 76.639C16.8307 76.7901 16.6331 76.8657 16.3657 76.8657Z" fill="white"/>
<path d="M37.4166 76.8657C37.1841 76.8657 36.9981 76.8133 36.8587 76.7087C36.7192 76.6041 36.6378 76.4646 36.6146 76.2903C36.5913 76.1159 36.6262 75.9183 36.7192 75.6975L41.4443 65.0964C41.5605 64.8174 41.7058 64.6198 41.8802 64.5036C42.0662 64.3874 42.2696 64.3292 42.4905 64.3292C42.6997 64.3292 42.8915 64.3874 43.0658 64.5036C43.2518 64.6198 43.4029 64.8174 43.5192 65.0964L48.2443 75.6975C48.3489 75.9183 48.3896 76.1217 48.3664 76.3077C48.3431 76.4821 48.2676 76.6216 48.1397 76.7262C48.0118 76.8192 47.8317 76.8657 47.5992 76.8657C47.3435 76.8657 47.14 76.8017 46.9889 76.6739C46.8378 76.546 46.7041 76.3484 46.5879 76.081L45.3674 73.2564L46.1869 73.7446H38.7592L39.5612 73.2564L38.3581 76.081C38.2419 76.36 38.114 76.5634 37.9746 76.6913C37.8351 76.8075 37.6491 76.8657 37.4166 76.8657ZM42.4556 66.4564L39.8228 72.6985L39.3869 72.28H45.5417L45.1407 72.6985L42.4905 66.4564H42.4556Z" fill="white"/>
<path d="M58.2059 76.8657C57.9153 76.8657 57.6887 76.7843 57.5259 76.6216C57.3748 76.4588 57.2993 76.2322 57.2993 75.9416V65.3754C57.2993 65.0732 57.3806 64.8465 57.5434 64.6954C57.7061 64.5327 57.9328 64.4513 58.2234 64.4513H62.3906C63.7157 64.4513 64.7386 64.7651 65.4593 65.3928C66.18 66.0205 66.5403 66.9098 66.5403 68.0605C66.5403 68.8045 66.3776 69.4438 66.0521 69.9785C65.7266 70.5132 65.25 70.92 64.6224 71.199C64.0063 71.478 63.2624 71.6175 62.3906 71.6175L62.5475 71.3733H63.0008C63.4658 71.3733 63.8668 71.4896 64.2039 71.7221C64.5526 71.9545 64.8665 72.3265 65.1454 72.838L66.6449 75.6277C66.7612 75.8369 66.8135 76.0404 66.8018 76.238C66.8018 76.4239 66.7321 76.5751 66.5926 76.6913C66.4647 76.8075 66.2788 76.8657 66.0347 76.8657C65.7789 76.8657 65.5697 76.8133 65.407 76.7087C65.2559 76.5925 65.1164 76.4239 64.9885 76.2031L63.1577 72.8205C62.9136 72.3672 62.6347 72.065 62.3208 71.9139C62.007 71.7511 61.5943 71.6698 61.0829 71.6698H59.1126V75.9416C59.1126 76.2322 59.037 76.4588 58.8859 76.6216C58.7348 76.7843 58.5082 76.8657 58.2059 76.8657ZM59.1126 70.3098H62.0941C62.9776 70.3098 63.6459 70.1238 64.0993 69.7518C64.5526 69.3798 64.7793 68.8277 64.7793 68.0954C64.7793 67.3747 64.5526 66.8284 64.0993 66.4564C63.6459 66.0845 62.9776 65.8985 62.0941 65.8985H59.1126V70.3098Z" fill="white"/>
<path d="M76.9802 76.8657C76.6896 76.8657 76.4629 76.7843 76.3002 76.6216C76.1491 76.4588 76.0735 76.2322 76.0735 75.9416V65.2359C76.0735 64.9337 76.1491 64.707 76.3002 64.5559C76.4629 64.4048 76.6896 64.3292 76.9802 64.3292C77.2708 64.3292 77.4916 64.4048 77.6428 64.5559C77.8055 64.707 77.8869 64.9337 77.8869 65.2359V69.9785H77.9217L83.2746 64.8C83.4489 64.6373 83.6117 64.521 83.7628 64.4513C83.9255 64.3699 84.1057 64.3292 84.3033 64.3292C84.5706 64.3292 84.7624 64.399 84.8787 64.5385C85.0065 64.6663 85.0588 64.8233 85.0356 65.0092C85.0123 65.1952 84.9135 65.3754 84.7392 65.5498L79.1771 70.8503L79.212 69.961L85.0007 75.5405C85.2099 75.7381 85.3204 75.9416 85.332 76.1508C85.3436 76.36 85.2797 76.5344 85.1402 76.6739C85.0007 76.8017 84.8031 76.8657 84.5474 76.8657C84.3149 76.8657 84.1289 76.8192 83.9894 76.7262C83.8499 76.6332 83.6872 76.4995 83.5012 76.3251L77.9217 71.0072H77.8869V75.9416C77.8869 76.2322 77.8113 76.4588 77.6602 76.6216C77.5091 76.7843 77.2824 76.8657 76.9802 76.8657Z" fill="white"/>
<path d="M95.2282 76.7436C94.9144 76.7436 94.6703 76.6622 94.4959 76.4995C94.3332 76.3251 94.2518 76.081 94.2518 75.7672V65.4277C94.2518 65.1139 94.3332 64.8756 94.4959 64.7128C94.6703 64.5385 94.9144 64.4513 95.2282 64.4513H101.592C101.836 64.4513 102.022 64.5152 102.15 64.6431C102.278 64.7593 102.342 64.9337 102.342 65.1662C102.342 65.4103 102.278 65.5963 102.15 65.7241C102.022 65.852 101.836 65.9159 101.592 65.9159H95.9954V69.7692H101.209C101.464 69.7692 101.65 69.8332 101.767 69.961C101.895 70.0889 101.959 70.2691 101.959 70.5016C101.959 70.7457 101.895 70.9316 101.767 71.0595C101.65 71.1757 101.464 71.2339 101.209 71.2339H95.9954V75.279H101.592C101.836 75.279 102.022 75.3429 102.15 75.4708C102.278 75.5986 102.342 75.7788 102.342 76.0113C102.342 76.2554 102.278 76.4414 102.15 76.5692C102.022 76.6855 101.836 76.7436 101.592 76.7436H95.2282Z" fill="white"/>
<path d="M115.246 76.8657C114.955 76.8657 114.729 76.7843 114.566 76.6216C114.415 76.4588 114.339 76.2322 114.339 75.9416V65.9682H110.643C110.399 65.9682 110.207 65.9043 110.068 65.7764C109.928 65.6369 109.858 65.4451 109.858 65.201C109.858 64.9569 109.928 64.771 110.068 64.6431C110.207 64.5152 110.399 64.4513 110.643 64.4513H119.832C120.087 64.4513 120.285 64.5152 120.424 64.6431C120.564 64.771 120.634 64.9569 120.634 65.201C120.634 65.4451 120.564 65.6369 120.424 65.7764C120.285 65.9043 120.087 65.9682 119.832 65.9682H116.135V75.9416C116.135 76.2322 116.06 76.4588 115.909 76.6216C115.769 76.7843 115.548 76.8657 115.246 76.8657Z" fill="white"/>
<path d="M129.88 76.8657C129.59 76.8657 129.363 76.7843 129.2 76.6216C129.049 76.4588 128.974 76.2322 128.974 75.9416V65.2533C128.974 64.9511 129.049 64.7245 129.2 64.5733C129.363 64.4106 129.59 64.3292 129.88 64.3292C130.171 64.3292 130.392 64.4106 130.543 64.5733C130.706 64.7245 130.787 64.9511 130.787 65.2533V75.9416C130.787 76.2322 130.712 76.4588 130.56 76.6216C130.409 76.7843 130.183 76.8657 129.88 76.8657Z" fill="white"/>
<path d="M141.468 76.8657C141.201 76.8657 140.991 76.7901 140.84 76.639C140.689 76.4879 140.614 76.2728 140.614 75.9939V65.2359C140.614 64.9453 140.683 64.7245 140.823 64.5733C140.974 64.4106 141.172 64.3292 141.416 64.3292C141.625 64.3292 141.782 64.3699 141.886 64.4513C142.003 64.521 142.136 64.6547 142.288 64.8523L149.471 74.32H149.035V65.1836C149.035 64.9163 149.105 64.707 149.244 64.5559C149.396 64.4048 149.605 64.3292 149.872 64.3292C150.151 64.3292 150.36 64.4048 150.5 64.5559C150.639 64.707 150.709 64.9163 150.709 65.1836V76.0113C150.709 76.2786 150.639 76.4879 150.5 76.639C150.372 76.7901 150.198 76.8657 149.977 76.8657C149.768 76.8657 149.593 76.825 149.454 76.7436C149.326 76.6622 149.186 76.5227 149.035 76.3251L141.886 66.8749H142.288V75.9939C142.288 76.2728 142.218 76.4879 142.078 76.639C141.939 76.7901 141.735 76.8657 141.468 76.8657Z" fill="white"/>
<path d="M166.3 76.9005C164.963 76.9005 163.835 76.6506 162.917 76.1508C161.999 75.6393 161.301 74.9128 160.825 73.9713C160.36 73.0298 160.127 71.908 160.127 70.6062C160.127 69.6298 160.261 68.758 160.528 67.9908C160.807 67.212 161.203 66.5494 161.714 66.0031C162.237 65.4451 162.871 65.0209 163.614 64.7303C164.37 64.4397 165.224 64.2944 166.178 64.2944C166.875 64.2944 167.561 64.3874 168.235 64.5733C168.909 64.7477 169.525 65.0383 170.083 65.4451C170.246 65.5614 170.351 65.6951 170.397 65.8462C170.444 65.9973 170.444 66.1542 170.397 66.3169C170.362 66.468 170.287 66.6017 170.17 66.718C170.066 66.8342 169.932 66.9039 169.769 66.9272C169.618 66.9504 169.45 66.9039 169.264 66.7877C168.81 66.4739 168.334 66.2472 167.834 66.1077C167.334 65.9566 166.782 65.881 166.178 65.881C165.271 65.881 164.504 66.067 163.876 66.439C163.26 66.811 162.795 67.3515 162.481 68.0605C162.167 68.758 162.01 69.6065 162.01 70.6062C162.01 72.1522 162.377 73.3262 163.109 74.1282C163.841 74.9303 164.928 75.3313 166.369 75.3313C166.892 75.3313 167.404 75.2848 167.904 75.1918C168.415 75.0872 168.903 74.9419 169.368 74.7559L169.002 75.6626V71.6H166.753C166.52 71.6 166.334 71.5419 166.195 71.4257C166.067 71.2978 166.003 71.1234 166.003 70.9026C166.003 70.6817 166.067 70.519 166.195 70.4144C166.334 70.2981 166.52 70.24 166.753 70.24H169.769C170.013 70.24 170.199 70.3039 170.327 70.4318C170.455 70.5597 170.519 70.7457 170.519 70.9898V75.3836C170.519 75.5928 170.478 75.773 170.397 75.9241C170.327 76.0636 170.205 76.1682 170.031 76.238C169.531 76.4356 168.944 76.5983 168.27 76.7262C167.596 76.8424 166.939 76.9005 166.3 76.9005Z" fill="white"/>
<defs>
<clipPath id="clip0_655_2">
<rect width="54.4886" height="54.4886" fill="white" transform="translate(222.113 5.63272) rotate(15)"/>
</clipPath>
</defs>
</svg>
