<svg width="97" height="41" viewBox="0 0 97 41" fill="none" xmlns="http://www.w3.org/2000/svg">
<path fill-rule="evenodd" clip-rule="evenodd" d="M96.5488 21.1619C96.5488 14.328 93.2386 8.93555 86.9119 8.93555C80.5585 8.93555 76.7144 14.328 76.7144 21.1085C76.7144 29.1438 81.2525 33.2014 87.7661 33.2014C90.9429 33.2014 93.3454 32.4807 95.1607 31.4662V26.1272C93.3454 27.0349 91.2632 27.5955 88.6204 27.5955C86.031 27.5955 83.7352 26.6878 83.4415 23.5378H96.4955C96.4955 23.1908 96.5488 21.8026 96.5488 21.1619ZM83.3614 18.6259C83.3614 15.6093 85.2034 14.3547 86.8852 14.3547C88.5136 14.3547 90.2488 15.6093 90.2488 18.6259H83.3614Z" fill="#5433FF"/>
<path fill-rule="evenodd" clip-rule="evenodd" d="M66.4102 8.93555C63.7941 8.93555 62.1123 10.1635 61.178 11.0178L60.8309 9.36267H54.958V40.4892L61.6318 39.0744L61.6585 31.5196C62.6195 32.2137 64.0344 33.2014 66.3835 33.2014C71.162 33.2014 75.5133 29.3573 75.5133 20.895C75.4866 13.1534 71.0819 8.93555 66.4102 8.93555ZM64.8085 27.3285C63.2335 27.3285 62.2992 26.7679 61.6585 26.0738L61.6318 16.1699C62.3259 15.3958 63.2869 14.8619 64.8085 14.8619C67.2378 14.8619 68.9196 17.5848 68.9196 21.0818C68.9196 24.659 67.2645 27.3285 64.8085 27.3285Z" fill="#5433FF"/>
<path fill-rule="evenodd" clip-rule="evenodd" d="M45.7744 7.36065L52.4749 5.91911V0.5L45.7744 1.91484V7.36065Z" fill="#5433FF"/>
<path d="M52.4749 9.3894H45.7744V32.7477H52.4749V9.3894Z" fill="#5433FF"/>
<path fill-rule="evenodd" clip-rule="evenodd" d="M38.5937 11.3649L38.1665 9.38946H32.4004V32.7477H39.0742V16.9175C40.6492 14.862 43.3187 15.2357 44.1463 15.5293V9.38946C43.292 9.06912 40.1687 8.48183 38.5937 11.3649Z" fill="#5433FF"/>
<path fill-rule="evenodd" clip-rule="evenodd" d="M25.2459 3.59668L18.7323 4.98483L18.7056 26.3676C18.7056 30.3185 21.6687 33.2283 25.6196 33.2283C27.8086 33.2283 29.4103 32.8279 30.2913 32.3474V26.9282C29.437 27.2753 25.2192 28.5033 25.2192 24.5524V15.0756H30.2913V9.38953H25.2192L25.2459 3.59668Z" fill="#5433FF"/>
<path fill-rule="evenodd" clip-rule="evenodd" d="M7.20016 16.1699C7.20016 15.1288 8.05441 14.7284 9.46925 14.7284C11.4981 14.7284 14.0608 15.3424 16.0896 16.4369V10.1635C13.8739 9.28258 11.6849 8.93555 9.46925 8.93555C4.05013 8.93555 0.446289 11.7652 0.446289 16.4903C0.446289 23.8581 10.5904 22.6835 10.5904 25.8603C10.5904 27.0882 9.52264 27.4887 8.02771 27.4887C5.81201 27.4887 2.98233 26.581 0.739935 25.3531V31.7065C3.22258 32.7743 5.73193 33.2281 8.02771 33.2281C13.5803 33.2281 17.3977 30.4785 17.3977 25.7001C17.371 17.7449 7.20016 19.1598 7.20016 16.1699Z" fill="#5433FF"/>
</svg>
