<svg width="98" height="41" viewBox="0 0 98 41" fill="none" xmlns="http://www.w3.org/2000/svg">
<path fill-rule="evenodd" clip-rule="evenodd" d="M97.0486 21.212C97.0486 14.3781 93.7384 8.98566 87.4117 8.98566C81.0582 8.98566 77.2141 14.3781 77.2141 21.1586C77.2141 29.1939 81.7523 33.2515 88.2659 33.2515C91.4426 33.2515 93.8452 32.5308 95.6604 31.5164V26.1773C93.8452 27.085 91.763 27.6456 89.1201 27.6456C86.5307 27.6456 84.2349 26.7379 83.9413 23.5879H96.9952C96.9952 23.2409 97.0486 21.8527 97.0486 21.212ZM83.8612 18.676C83.8612 15.6594 85.7032 14.4048 87.385 14.4048C89.0134 14.4048 90.7485 15.6594 90.7485 18.676H83.8612Z" fill="white"/>
<path fill-rule="evenodd" clip-rule="evenodd" d="M66.9097 8.98566C64.2936 8.98566 62.6118 10.2136 61.6775 11.0679L61.3305 9.41278H55.4575V40.5393L62.1313 39.1245L62.158 31.5697C63.119 32.2638 64.5339 33.2515 66.883 33.2515C71.6615 33.2515 76.0128 29.4074 76.0128 20.9451C75.9861 13.2035 71.5814 8.98566 66.9097 8.98566ZM65.308 27.3786C63.733 27.3786 62.7987 26.818 62.158 26.1239L62.1313 16.22C62.8254 15.4459 63.7864 14.912 65.308 14.912C67.7373 14.912 69.4191 17.6349 69.4191 21.1319C69.4191 24.7091 67.764 27.3786 65.308 27.3786Z" fill="white"/>
<path fill-rule="evenodd" clip-rule="evenodd" d="M46.2744 7.41064L52.9749 5.9691V0.549988L46.2744 1.96483V7.41064Z" fill="white"/>
<path d="M52.9749 9.43945H46.2744V32.7977H52.9749V9.43945Z" fill="white"/>
<path fill-rule="evenodd" clip-rule="evenodd" d="M39.0934 11.4149L38.6663 9.43945H32.9001V32.7977H39.5739V16.9675C41.1489 14.912 43.8185 15.2857 44.646 15.5793V9.43945C43.7918 9.11911 40.6684 8.53181 39.0934 11.4149Z" fill="white"/>
<path fill-rule="evenodd" clip-rule="evenodd" d="M25.7459 3.64661L19.2323 5.03475L19.2056 26.4176C19.2056 30.3684 22.1687 33.2782 26.1196 33.2782C28.3086 33.2782 29.9103 32.8778 30.7913 32.3973V26.9782C29.937 27.3252 25.7192 28.5532 25.7192 24.6023V15.1255H30.7913V9.43945H25.7192L25.7459 3.64661Z" fill="white"/>
<path fill-rule="evenodd" clip-rule="evenodd" d="M7.69992 16.22C7.69992 15.1789 8.55416 14.7785 9.96901 14.7785C11.9978 14.7785 14.5606 15.3925 16.5894 16.487V10.2136C14.3737 9.33269 12.1847 8.98566 9.96901 8.98566C4.54989 8.98566 0.946045 11.8153 0.946045 16.5404C0.946045 23.9082 11.0902 22.7337 11.0902 25.9104C11.0902 27.1384 10.0224 27.5388 8.52747 27.5388C6.31177 27.5388 3.48208 26.6311 1.23969 25.4032V31.7566C3.72234 32.8244 6.23168 33.2782 8.52747 33.2782C14.0801 33.2782 17.8975 30.5286 17.8975 25.7502C17.8708 17.7951 7.69992 19.2099 7.69992 16.22Z" fill="white"/>
</svg>
