<svg width="98" height="41" viewBox="0 0 98 41" fill="none" xmlns="http://www.w3.org/2000/svg">
<path fill-rule="evenodd" clip-rule="evenodd" d="M97.0488 21.212C97.0488 14.3781 93.7386 8.98566 87.4119 8.98566C81.0585 8.98566 77.2144 14.3781 77.2144 21.1586C77.2144 29.1939 81.7525 33.2515 88.2661 33.2515C91.4429 33.2515 93.8454 32.5308 95.6607 31.5164V26.1773C93.8454 27.085 91.7632 27.6456 89.1204 27.6456C86.531 27.6456 84.2352 26.7379 83.9415 23.5879H96.9955C96.9955 23.2409 97.0488 21.8527 97.0488 21.212ZM83.8614 18.676C83.8614 15.6594 85.7034 14.4048 87.3852 14.4048C89.0136 14.4048 90.7488 15.6594 90.7488 18.676H83.8614Z" fill="white"/>
<path fill-rule="evenodd" clip-rule="evenodd" d="M66.9102 8.98566C64.2941 8.98566 62.6123 10.2136 61.678 11.0679L61.3309 9.41278H55.458V40.5393L62.1318 39.1245L62.1585 31.5697C63.1195 32.2638 64.5344 33.2515 66.8835 33.2515C71.662 33.2515 76.0133 29.4074 76.0133 20.9451C75.9866 13.2035 71.5819 8.98566 66.9102 8.98566ZM65.3085 27.3786C63.7335 27.3786 62.7992 26.818 62.1585 26.1239L62.1318 16.22C62.8259 15.4459 63.7869 14.912 65.3085 14.912C67.7378 14.912 69.4196 17.6349 69.4196 21.1319C69.4196 24.7091 67.7645 27.3786 65.3085 27.3786Z" fill="white"/>
<path fill-rule="evenodd" clip-rule="evenodd" d="M46.2744 7.41064L52.9749 5.9691V0.549988L46.2744 1.96483V7.41064Z" fill="white"/>
<path d="M52.9749 9.43945H46.2744V32.7977H52.9749V9.43945Z" fill="white"/>
<path fill-rule="evenodd" clip-rule="evenodd" d="M39.0937 11.4149L38.6665 9.43945H32.9004V32.7977H39.5742V16.9675C41.1492 14.912 43.8187 15.2857 44.6463 15.5793V9.43945C43.792 9.11911 40.6687 8.53181 39.0937 11.4149Z" fill="white"/>
<path fill-rule="evenodd" clip-rule="evenodd" d="M25.7459 3.64661L19.2323 5.03475L19.2056 26.4176C19.2056 30.3684 22.1687 33.2782 26.1196 33.2782C28.3086 33.2782 29.9103 32.8778 30.7913 32.3973V26.9782C29.937 27.3252 25.7192 28.5532 25.7192 24.6023V15.1255H30.7913V9.43945H25.7192L25.7459 3.64661Z" fill="white"/>
<path fill-rule="evenodd" clip-rule="evenodd" d="M7.70016 16.22C7.70016 15.1789 8.55441 14.7785 9.96925 14.7785C11.9981 14.7785 14.5608 15.3925 16.5896 16.487V10.2136C14.3739 9.33269 12.1849 8.98566 9.96925 8.98566C4.55013 8.98566 0.946289 11.8153 0.946289 16.5404C0.946289 23.9082 11.0904 22.7337 11.0904 25.9104C11.0904 27.1384 10.0226 27.5388 8.52771 27.5388C6.31201 27.5388 3.48233 26.6311 1.23994 25.4032V31.7566C3.72258 32.8244 6.23193 33.2782 8.52771 33.2782C14.0803 33.2782 17.8977 30.5286 17.8977 25.7502C17.871 17.7951 7.70016 19.2099 7.70016 16.22Z" fill="white"/>
</svg>
